<?xml version="1.0" standalone="no"?>
<!DOCTYPE svg PUBLIC "-//W3C//DTD SVG 20010904//EN"
 "http://www.w3.org/TR/2001/REC-SVG-20010904/DTD/svg10.dtd">
<svg version="1.0" xmlns="http://www.w3.org/2000/svg"
 width="700.000000pt" height="700.000000pt" viewBox="0 0 700.000000 700.000000"
 preserveAspectRatio="xMidYMid meet">
<metadata>
Created by potrace 1.14, written by Peter Selinger 2001-2017
</metadata>
<g transform="translate(0.000000,700.000000) scale(0.100000,-0.100000)"
fill="#000000" stroke="none">
<path d="M2180 5875 c-156 -35 -299 -145 -369 -286 -22 -43 -44 -102 -50 -131
-8 -37 -10 -402 -9 -1204 l3 -1150 765 714 765 715 3 192 c2 171 4 194 21 209
23 21 369 91 404 82 14 -3 27 -14 29 -24 2 -9 2 -896 0 -1970 l-5 -1954 369 5
c322 4 381 7 466 25 128 27 287 81 388 132 l83 42 -24 23 c-13 12 -280 262
-594 555 l-570 533 -3 81 -3 80 23 -21 c13 -12 304 -285 648 -606 l624 -585
43 31 c24 16 66 51 94 76 l51 46 -727 680 c-400 374 -736 688 -746 698 -15 14
-19 33 -19 87 0 39 4 70 9 70 4 0 358 -327 786 -726 643 -601 779 -724 790
-713 7 8 43 52 79 97 l67 84 -35 31 c-20 18 -409 381 -866 807 l-830 775 0 73
c0 39 3 72 8 72 4 0 405 -371 892 -825 487 -454 888 -825 891 -825 9 0 88 174
95 208 6 28 -35 68 -940 913 l-946 883 0 74 c0 42 4 72 9 70 8 -2 1525 -1416
1847 -1721 l82 -78 18 77 c9 43 17 110 18 149 l1 71 -987 922 -988 923 0 74
c0 41 4 75 9 75 4 0 451 -414 992 -919 541 -505 986 -914 988 -909 2 6 -2 60
-9 122 -33 304 -153 587 -352 831 l-65 80 19 45 c116 271 136 686 48 980 l-20
65 -502 503 -503 502 -70 20 c-193 54 -169 53 -1185 56 -795 3 -955 1 -1010
-11z"/>
<path d="M3468 4537 c-25 -11 -210 -182 -1268 -1169 l-465 -433 -3 -169 c-2
-109 1 -167 8 -164 5 1 354 325 776 718 l766 715 -7 84 -6 84 63 64 c34 34 66
63 70 63 4 0 8 -76 8 -169 l0 -169 -840 -782 -840 -782 0 -169 c0 -93 2 -169
4 -169 2 0 350 323 772 718 l769 718 5 99 5 100 58 54 c31 30 59 52 62 50 2
-3 1 -82 -2 -177 l-6 -172 -111 -102 c-61 -57 -436 -406 -833 -776 l-723 -673
0 -165 c0 -90 2 -164 6 -164 3 0 350 322 772 716 l767 717 5 98 5 98 58 51 57
52 0 -170 0 -170 -820 -762 c-477 -444 -820 -771 -820 -781 0 -25 69 -154 96
-180 l23 -22 113 105 c179 167 454 424 887 828 l401 375 0 92 0 91 58 51 57
50 3 -164 2 -163 -52 -50 c-29 -27 -351 -327 -715 -667 -365 -339 -663 -620
-663 -625 0 -12 110 -67 175 -87 55 -16 104 -18 595 -18 l535 0 3 591 2 591
58 54 57 54 5 -645 5 -645 97 -3 98 -3 2 1703 c2 937 0 1713 -4 1725 -14 44
-85 71 -130 50z"/>
</g>
</svg>
